<?xml version="1.0" standalone="no"?>
<!DOCTYPE svg PUBLIC "-//W3C//DTD SVG 20010904//EN"
 "http://www.w3.org/TR/2001/REC-SVG-20010904/DTD/svg10.dtd">
<svg version="1.0" xmlns="http://www.w3.org/2000/svg"
 width="776.000000pt" height="776.000000pt" viewBox="0 0 776.000000 776.000000"
 preserveAspectRatio="xMidYMid meet">
<metadata>
Created by potrace 1.11, written by Peter Selinger 2001-2013
</metadata>
<g transform="translate(0.000000,776.000000) scale(0.100000,-0.100000)"
fill="#000000" stroke="none">
<path d="M2864 7632 c8 -13 -9 -34 -36 -45 -10 -3 -18 -14 -18 -23 0 -10 -5
-14 -16 -10 -8 3 -12 2 -9 -4 3 -6 0 -10 -7 -10 -9 0 -9 -3 2 -10 8 -5 10 -10
4 -10 -12 0 -28 -36 -25 -54 1 -5 -4 -4 -12 2 -11 9 -13 8 -12 -8 2 -26 10
-33 39 -35 21 0 23 2 13 14 -10 12 -9 13 3 6 8 -6 18 -10 22 -10 3 0 10 -4 15
-9 5 -5 3 -6 -4 -2 -7 4 -13 2 -13 -3 0 -14 17 -14 25 -1 4 6 12 4 22 -5 9 -9
22 -14 30 -11 8 3 12 2 9 -3 -7 -11 22 -23 36 -14 7 3 8 1 4 -5 -5 -8 1 -12
14 -12 12 0 18 -4 15 -10 -6 -10 7 -14 32 -11 7 1 10 -7 8 -20 -4 -18 -2 -19
11 -8 12 10 15 10 12 -2 -2 -8 3 -13 10 -11 6 1 12 -2 12 -8 0 -6 6 -10 14
-10 8 0 17 -7 20 -16 3 -8 11 -12 17 -9 6 4 9 0 7 -11 -2 -10 3 -19 10 -19 7
0 17 -7 22 -15 5 -8 10 -11 10 -7 0 14 40 -14 40 -28 0 -8 7 -15 16 -15 10 0
14 -6 11 -14 -4 -10 0 -14 13 -11 11 2 20 -4 23 -16 3 -10 13 -19 22 -19 9 0
13 -4 10 -10 -3 -5 1 -10 10 -10 9 0 13 -4 10 -10 -6 -9 8 -14 28 -11 4 0 6
-2 6 -6 -3 -20 2 -33 12 -33 17 0 50 -41 42 -53 -3 -6 -1 -7 5 -3 8 4 12 0 12
-11 0 -15 2 -16 10 -3 8 13 10 13 10 -1 0 -9 11 -24 24 -35 14 -10 23 -21 20
-26 -3 -4 2 -8 11 -8 12 0 15 -5 11 -17 -4 -10 -4 -14 0 -11 8 8 34 -16 34
-32 0 -6 4 -9 9 -5 9 5 27 -32 23 -47 -1 -4 8 -5 19 -3 18 4 19 2 7 -12 -11
-15 -11 -16 5 -10 10 4 16 3 13 -2 -3 -5 4 -21 16 -37 13 -16 16 -24 8 -20 -8
5 -3 -3 13 -16 15 -14 27 -32 27 -39 1 -20 25 -49 41 -49 11 0 11 -2 -1 -10
-12 -8 -12 -10 -1 -10 8 0 11 -3 8 -7 -4 -3 2 -13 13 -20 11 -8 18 -18 15 -23
-3 -4 2 -13 11 -20 8 -7 12 -20 9 -28 -4 -11 -2 -12 7 -4 10 8 14 3 15 -21 2
-18 7 -33 13 -35 5 -2 10 -12 10 -23 0 -10 5 -19 11 -19 6 0 9 -9 6 -19 -3
-15 -1 -18 11 -14 10 4 13 2 8 -5 -3 -6 -2 -13 4 -17 6 -4 8 -11 5 -16 -4 -5
-1 -9 6 -9 7 0 9 -3 6 -7 -4 -3 1 -12 11 -20 9 -8 12 -12 5 -9 -17 9 -9 -25 9
-38 8 -6 13 -17 10 -25 -3 -8 0 -11 6 -7 6 3 13 2 17 -4 3 -5 2 -10 -3 -10 -6
0 -5 -10 1 -24 7 -13 15 -22 20 -19 4 2 7 1 6 -4 -1 -4 1 -16 6 -26 4 -10 5
-21 1 -24 -3 -3 2 -12 12 -20 11 -10 12 -12 2 -8 -12 5 -11 4 1 -7 10 -8 15
-25 13 -41 -1 -15 2 -27 7 -27 6 0 7 5 3 12 -4 7 -3 8 4 4 6 -4 8 -14 5 -23
-4 -11 -3 -14 5 -9 8 5 10 1 5 -10 -5 -12 -3 -15 6 -9 10 6 11 3 1 -15 -6 -12
-9 -24 -6 -28 3 -3 6 1 6 9 0 12 2 12 9 0 5 -8 7 -21 3 -29 -4 -11 -1 -14 11
-9 11 4 14 2 10 -9 -3 -8 0 -21 7 -29 7 -9 8 -15 2 -15 -5 0 -8 -9 -5 -21 5
-16 8 -18 15 -7 7 9 8 4 5 -15 -2 -15 1 -31 7 -35 16 -10 15 -52 -1 -52 -7 0
-13 -8 -13 -17 0 -14 -2 -15 -9 -4 -7 11 -11 10 -20 -5 -6 -11 -11 -15 -11
-10 0 5 -8 2 -17 -5 -14 -12 -16 -12 -9 1 4 8 1 6 -8 -4 -8 -10 -13 -23 -9
-29 4 -6 1 -7 -6 -3 -8 5 -23 -4 -40 -23 -15 -17 -31 -28 -34 -24 -7 6 -11
-13 -8 -31 1 -5 -5 -4 -13 3 -12 10 -14 9 -9 -10 4 -15 3 -20 -5 -15 -7 4 -12
2 -12 -4 0 -6 -4 -8 -10 -5 -6 3 -7 -1 -4 -9 3 -9 1 -16 -6 -16 -6 0 -8 -4 -5
-10 3 -5 1 -10 -5 -10 -7 0 -9 -7 -6 -16 5 -13 3 -14 -7 -6 -10 9 -13 5 -12
-16 1 -15 -5 -35 -13 -44 -8 -10 -12 -24 -9 -32 4 -10 1 -13 -9 -9 -10 4 -12
0 -8 -11 4 -10 1 -16 -7 -16 -11 0 -11 -3 1 -10 12 -8 12 -10 1 -10 -11 0 -11
-3 0 -17 10 -12 10 -15 1 -9 -9 5 -12 0 -10 -21 1 -15 -4 -38 -11 -50 -8 -16
-8 -23 -1 -23 7 0 7 -7 -1 -21 -8 -15 -8 -19 0 -15 6 4 11 2 11 -3 0 -6 -4
-11 -8 -11 -4 0 -8 -9 -8 -20 0 -10 2 -17 5 -15 10 10 27 -40 18 -52 -6 -9 -6
-13 1 -13 11 0 11 -18 -1 -37 -6 -9 -3 -11 9 -6 13 5 15 2 9 -17 -5 -16 -4
-20 5 -15 7 4 10 1 8 -11 -2 -12 2 -18 11 -16 12 3 12 1 0 -14 -8 -10 -9 -15
-4 -12 6 4 17 3 25 -3 12 -7 11 -9 -5 -9 -17 0 -17 -2 -5 -10 8 -5 11 -10 6
-10 -5 0 -3 -7 4 -15 7 -8 16 -12 21 -9 5 3 9 2 8 -3 -4 -21 2 -33 18 -33 15
0 14 -2 -3 -15 -19 -15 -19 -15 1 -9 16 5 17 4 5 -4 -9 -7 -18 -7 -26 -1 -8 7
-14 6 -18 -3 -5 -10 -7 -10 -12 -1 -4 10 -11 10 -26 2 -11 -6 -26 -8 -34 -5
-9 3 -14 -1 -15 -12 0 -14 -2 -14 -9 3 -5 11 -9 15 -9 9 -1 -6 -14 -9 -32 -6
-22 3 -30 1 -25 -7 5 -7 1 -9 -8 -5 -9 3 -13 10 -10 15 7 11 -29 -2 -37 -14
-3 -5 -9 -1 -12 8 -5 11 -3 14 6 10 6 -4 4 0 -6 8 -18 15 -18 15 0 20 17 5 17
5 0 6 -14 1 -17 6 -12 22 5 16 4 19 -5 14 -10 -6 -12 -1 -8 18 3 16 0 28 -8
31 -7 3 -10 14 -7 27 5 16 3 20 -6 14 -10 -6 -11 -3 -2 14 10 18 9 21 -6 21
-15 0 -16 2 -3 10 10 6 11 10 3 10 -7 0 -13 5 -13 11 0 5 4 7 10 4 6 -3 7 1 4
9 -3 9 -11 13 -18 9 -7 -4 -7 -2 1 8 10 12 10 18 0 29 -9 10 -9 11 1 6 7 -5
12 -1 12 9 0 10 -5 13 -12 9 -10 -6 -10 -5 -1 7 10 12 10 18 0 29 -10 10 -9
12 3 6 8 -4 7 -1 -3 7 -14 11 -15 16 -5 20 10 4 10 6 1 6 -7 1 -13 8 -13 17 0
8 -5 12 -11 8 -7 -4 -7 1 1 16 7 13 8 20 2 16 -6 -4 -11 5 -11 21 -1 42 -7 72
-14 79 -4 4 -2 13 4 20 7 8 7 14 -1 19 -7 4 -6 13 2 28 11 21 10 21 -7 7 -14
-11 -17 -11 -11 -1 5 8 3 17 -5 22 -11 7 -11 9 -1 9 10 0 10 3 0 14 -7 8 -16
12 -20 9 -5 -2 -8 1 -8 7 0 17 -26 40 -44 40 -9 0 -16 5 -16 11 0 8 -4 8 -13
1 -8 -7 -18 -6 -31 3 -12 9 -25 11 -41 5 -13 -5 -26 -6 -31 -2 -4 4 -4 1 0 -5
5 -9 -1 -13 -18 -13 -15 0 -31 -8 -38 -20 -14 -22 -33 -28 -23 -7 4 6 1 5 -7
-4 -7 -9 -18 -14 -24 -12 -7 2 -18 -3 -26 -11 -12 -11 -18 -12 -27 -3 -8 8
-11 8 -11 -1 0 -6 -7 -9 -15 -6 -8 4 -17 -1 -21 -10 -3 -9 -10 -16 -16 -16 -5
0 -6 5 -3 11 4 6 -2 5 -13 -2 -12 -7 -19 -16 -16 -20 2 -4 -5 -5 -16 -2 -11 3
-20 0 -20 -6 0 -6 -12 -11 -27 -11 -22 0 -25 -2 -13 -10 8 -5 10 -10 4 -10 -6
0 -14 3 -18 7 -3 4 -15 7 -26 8 -14 1 -17 -2 -10 -10 8 -9 4 -12 -15 -10 -14
2 -25 -1 -25 -7 0 -6 -7 -7 -16 -4 -10 4 -13 2 -8 -6 5 -7 2 -9 -8 -5 -9 3
-21 0 -28 -6 -10 -9 -14 -9 -17 1 -4 10 -8 10 -19 1 -11 -9 -14 -9 -14 1 0 9
-4 9 -17 -1 -11 -9 -14 -10 -9 -2 5 9 2 11 -8 7 -9 -3 -14 -10 -11 -14 3 -5
-3 -6 -13 -3 -10 2 -24 -3 -32 -11 -10 -13 -16 -14 -28 -4 -11 9 -14 9 -9 1 4
-6 3 -14 -3 -18 -5 -3 -10 -1 -10 6 0 9 -3 9 -14 0 -16 -13 -37 -11 -48 4 -5
6 -8 3 -8 -7 0 -12 -5 -15 -17 -11 -12 5 -14 3 -8 -8 7 -11 5 -11 -10 1 -14
11 -17 11 -11 1 7 -10 3 -12 -13 -6 -13 4 -21 2 -21 -6 0 -9 -4 -8 -15 1 -10
8 -15 9 -15 2 0 -6 -7 -9 -16 -5 -9 3 -20 0 -25 -8 -6 -10 -9 -10 -9 -1 0 6
-5 12 -11 12 -5 0 -7 -6 -3 -12 5 -8 0 -7 -11 2 -11 9 -16 10 -11 3 5 -9 -2
-13 -24 -13 -17 0 -29 -4 -26 -8 2 -4 -5 -9 -17 -9 -17 -2 -19 0 -7 7 9 6 10
10 3 10 -7 0 -17 -8 -22 -17 -6 -10 -11 -14 -11 -9 0 5 -8 2 -17 -5 -14 -12
-16 -12 -8 0 8 15 -5 10 -34 -13 -17 -13 -43 -17 -35 -5 3 5 9 7 14 4 5 -3 11
-1 14 4 8 12 -19 8 -35 -6 -14 -11 -19 -13 -40 -13 -5 0 -8 -4 -5 -9 4 -5 -6
-8 -20 -6 -15 1 -28 -3 -31 -12 -5 -12 -7 -12 -14 -1 -7 10 -9 10 -9 -2 0 -9
-8 -16 -17 -16 -10 -1 -26 -4 -35 -8 -13 -6 -15 -3 -11 13 3 12 10 21 16 21 6
0 3 6 -8 13 -12 10 -14 16 -7 21 7 4 9 19 5 36 -3 19 0 36 8 47 8 9 9 14 3 10
-7 -4 -15 0 -18 9 -4 10 -2 13 6 8 7 -5 9 -2 5 8 -3 9 0 21 6 28 9 10 9 11 -1
6 -9 -5 -11 2 -6 28 3 20 0 45 -7 58 -10 20 -10 21 2 11 11 -9 14 -7 15 13 1
13 -2 22 -6 19 -10 -6 -7 21 3 31 4 4 7 14 7 23 0 14 -2 14 -10 1 -7 -12 -9
-10 -7 7 0 12 4 20 8 17 4 -2 6 2 5 10 -4 27 -50 78 -89 97 -21 11 -35 24 -32
29 4 6 -3 6 -19 0 -17 -6 -27 -6 -32 1 -3 5 -13 9 -22 8 -33 -3 -43 1 -36 14
6 10 4 10 -7 0 -7 -7 -17 -13 -22 -13 -4 0 -5 6 -1 13 5 8 2 8 -9 -2 -12 -9
-17 -10 -17 -2 0 7 -5 9 -10 6 -6 -4 -8 -11 -5 -16 3 -5 -1 -6 -9 -3 -9 3 -13
11 -9 18 4 6 0 6 -9 -2 -9 -7 -20 -12 -24 -11 -22 4 -35 -2 -28 -13 5 -7 3 -8
-7 -3 -20 13 -49 13 -56 2 -4 -6 -1 -7 7 -2 8 5 11 3 9 -4 -3 -7 -7 -11 -11
-9 -3 2 -15 -5 -26 -15 -12 -11 -26 -16 -31 -12 -6 3 -11 1 -11 -6 0 -8 -5 -7
-17 2 -11 10 -14 10 -9 2 4 -8 2 -13 -4 -13 -6 0 -8 -5 -5 -11 4 -6 1 -10 -6
-8 -29 3 -40 -1 -33 -13 5 -9 2 -9 -9 1 -10 8 -17 9 -17 3 0 -10 -38 -28 -52
-24 -4 1 -5 -5 -2 -13 4 -8 1 -15 -6 -15 -8 0 -7 -4 2 -12 24 -23 73 -45 87
-40 8 3 11 0 7 -7 -4 -6 -1 -11 8 -11 9 0 16 -4 16 -10 0 -5 7 -10 16 -10 8 0
12 -4 9 -10 -3 -5 1 -10 11 -10 11 0 15 -6 11 -19 -3 -14 -1 -18 9 -14 8 3 18
-6 25 -21 7 -14 17 -26 22 -26 5 0 3 -8 -4 -17 -12 -15 -12 -16 6 -9 11 4 16
4 12 0 -4 -4 -1 -14 6 -22 9 -13 9 -14 0 -8 -8 4 -13 2 -13 -8 0 -8 5 -18 12
-22 7 -5 8 -3 3 6 -5 9 -4 11 4 6 6 -4 9 -18 7 -32 -3 -16 -1 -22 6 -18 7 5 9
0 6 -14 -4 -12 -2 -20 2 -17 5 3 11 1 15 -5 3 -5 1 -10 -5 -10 -7 0 -6 -6 3
-14 8 -9 13 -28 11 -46 -2 -17 0 -28 5 -25 10 6 26 -32 23 -52 -2 -7 5 -13 14
-13 12 0 14 -4 7 -12 -13 -17 -13 -49 0 -41 6 4 8 0 4 -10 -3 -10 -2 -17 2
-17 5 0 12 -7 15 -16 6 -15 4 -15 -11 -3 -17 13 -17 13 0 -7 9 -11 14 -24 10
-27 -3 -4 2 -7 13 -7 16 0 17 -2 4 -10 -12 -8 -12 -10 -1 -10 8 0 11 -7 8 -20
-3 -11 -1 -17 4 -14 5 3 12 -2 15 -10 3 -9 11 -13 16 -10 7 5 7 1 1 -11 -12
-21 22 -89 39 -79 6 4 8 -2 3 -16 -5 -15 -4 -20 4 -16 12 8 64 -27 55 -36 -3
-3 2 -8 11 -12 11 -4 14 -2 10 7 -4 6 0 4 8 -5 15 -19 33 -25 23 -9 -4 5 1 8
10 7 8 -1 20 -9 25 -17 7 -11 9 -10 9 6 1 17 3 16 11 -5 l10 -25 14 25 c12 21
14 22 15 6 0 -20 0 -20 16 0 8 10 12 13 9 6 -6 -11 -3 -11 16 0 13 7 28 19 32
26 7 11 11 11 25 0 12 -10 14 -10 8 0 -6 9 -1 11 19 8 23 -4 25 -3 14 10 -10
12 -9 13 5 8 11 -4 24 1 37 15 22 23 39 27 39 10 0 -8 5 -8 15 1 8 7 22 10 30
6 8 -3 15 -1 15 5 0 6 6 9 14 6 9 -4 16 3 20 16 5 19 6 20 23 5 16 -14 20 -14
31 -2 8 9 21 14 30 12 10 -2 23 3 30 12 8 8 11 9 7 3 -7 -14 7 -18 19 -6 12
13 48 14 40 1 -4 -7 -3 -8 4 -4 7 4 12 14 12 22 0 14 2 13 16 0 19 -20 25 -20
18 -1 -4 10 0 13 15 10 14 -3 21 1 21 12 0 13 2 14 17 2 9 -8 14 -9 10 -3 -4
7 1 18 10 25 14 12 16 12 8 -1 -8 -13 -7 -13 8 -1 9 7 17 10 17 5 0 -4 7 1 16
12 8 10 12 13 8 5 -5 -10 -3 -13 8 -8 9 3 21 0 28 -6 10 -9 11 -9 6 1 -4 6 -2
12 4 12 6 0 8 4 5 10 -3 6 -2 10 4 10 5 0 13 -5 17 -11 4 -8 9 -7 14 2 5 7 16
14 24 15 9 1 13 -2 10 -8 -4 -6 3 -5 15 1 12 7 26 9 31 6 6 -3 7 1 4 9 -7 19
7 21 25 4 11 -10 13 -10 7 0 -7 11 4 16 31 13 6 -1 14 3 18 9 3 5 15 10 26 10
14 0 18 4 13 13 -6 9 -4 9 8 -1 10 -8 19 -9 22 -3 3 5 0 12 -6 14 -7 3 0 6 15
6 16 1 26 5 22 11 -3 6 1 7 9 4 9 -4 16 -1 16 6 0 10 3 10 15 0 12 -10 14 -8
10 9 -2 12 0 19 6 16 5 -4 9 -1 9 5 0 6 5 8 11 4 6 -3 15 -1 19 6 7 11 11 10
23 -2 11 -10 12 -19 5 -26 -6 -6 -6 -12 1 -16 6 -4 11 -13 11 -19 0 -8 -3 -8
-9 1 -6 10 -10 9 -14 -7 -3 -12 -1 -18 4 -15 6 3 7 -5 3 -20 -4 -17 -2 -26 6
-26 7 0 10 -7 6 -15 -3 -8 1 -21 9 -29 11 -11 12 -16 2 -19 -8 -4 -8 -6 2 -6
11 -1 10 -5 -5 -17 -10 -8 -14 -13 -7 -10 6 4 14 2 18 -4 3 -5 -2 -10 -12 -11
-14 0 -15 -2 -3 -7 8 -4 16 -13 18 -20 1 -8 -2 -11 -7 -8 -5 4 -12 2 -16 -4
-3 -5 0 -10 7 -10 18 0 21 -40 5 -59 -9 -12 -9 -13 1 -7 8 5 12 0 13 -13 1
-12 2 -27 3 -33 1 -7 -3 -16 -9 -20 -7 -5 -6 -8 1 -8 7 0 9 -10 7 -25 -3 -13
-10 -23 -16 -22 -6 1 -11 -2 -12 -8 0 -15 -42 -54 -50 -47 -3 4 -3 -2 1 -12 5
-13 4 -17 -3 -13 -6 4 -14 0 -17 -9 -4 -10 -2 -13 6 -8 7 5 8 3 4 -5 -5 -7
-13 -10 -20 -8 -7 3 -13 -4 -13 -16 -1 -11 -7 -23 -14 -27 -6 -4 -9 -13 -5
-19 4 -6 1 -9 -7 -5 -8 3 -17 -2 -21 -11 -4 -11 -2 -14 7 -10 6 4 3 -2 -8 -12
-11 -10 -20 -22 -21 -28 -1 -21 -24 -65 -34 -65 -6 0 -9 -4 -6 -9 8 -13 -4
-42 -15 -35 -5 3 -6 -3 -2 -12 4 -11 2 -15 -4 -11 -6 4 -10 -3 -9 -16 0 -12
-4 -21 -10 -20 -6 1 -11 -4 -11 -12 0 -8 5 -11 11 -8 6 4 5 -1 -2 -10 -8 -9
-11 -21 -7 -27 3 -5 1 -10 -5 -10 -6 0 -8 -5 -4 -12 5 -8 2 -9 -10 -5 -13 5
-15 3 -8 -11 11 -20 4 -45 -9 -36 -5 3 -9 0 -9 -5 0 -6 6 -11 13 -11 9 0 8 -3
-2 -9 -11 -7 -11 -9 0 -14 10 -4 9 -6 -3 -6 -11 -1 -15 -6 -12 -15 3 -8 0 -17
-6 -21 -8 -5 -7 -11 2 -23 11 -13 10 -15 -5 -9 -15 6 -16 4 -7 -13 8 -14 8
-20 0 -20 -6 0 -8 -4 -5 -10 13 -21 -6 -31 -29 -16 -14 9 -28 11 -36 6 -9 -6
-19 -2 -28 11 -7 10 -22 19 -33 19 -13 0 -18 4 -13 12 4 6 3 8 -3 5 -6 -4 -16
0 -23 8 -7 8 -16 13 -20 10 -5 -3 -15 2 -23 10 -12 11 -17 12 -20 2 -4 -9 -6
-9 -6 1 -1 6 -8 12 -17 12 -8 0 -12 5 -9 10 3 6 -3 10 -15 10 -14 0 -19 4 -14
13 5 8 2 8 -9 -2 -15 -12 -17 -11 -17 3 0 10 -4 15 -8 12 -5 -3 -14 4 -22 14
-8 10 -18 16 -23 13 -6 -3 -16 2 -24 12 -9 14 -13 15 -13 4 -1 -10 -5 -9 -18
6 -9 11 -28 22 -42 24 -13 1 -32 12 -42 24 -12 13 -18 15 -18 7 0 -9 -6 -7
-16 6 -8 10 -13 12 -9 4 4 -8 -2 -4 -13 9 -12 15 -25 22 -36 18 -10 -4 -16 -1
-16 9 0 8 -5 12 -10 9 -6 -4 -7 -11 -4 -17 4 -7 2 -8 -5 -4 -6 4 -9 11 -6 16
3 5 1 11 -5 15 -5 3 -10 1 -10 -5 0 -6 -5 -8 -10 -5 -6 4 -8 11 -5 16 3 5 -2
6 -11 2 -13 -5 -15 -3 -9 8 8 12 6 12 -8 0 -15 -12 -21 -9 -18 11 0 4 -6 5
-14 1 -9 -3 -26 3 -38 13 -21 19 -21 19 -7 0 13 -18 13 -19 0 -11 -8 4 -23 15
-33 23 -16 15 -17 14 -11 -4 7 -17 6 -17 -9 -6 -9 8 -22 10 -28 6 -7 -4 -9 -3
-5 4 4 6 -1 11 -11 11 -10 1 -37 2 -60 2 -24 1 -43 5 -43 9 0 4 -11 7 -24 6
-13 0 -22 -5 -19 -10 3 -5 -6 -7 -21 -4 -15 3 -26 1 -26 -5 0 -6 -7 -2 -15 9
-8 10 -15 15 -14 9 3 -23 -2 -36 -11 -30 -6 4 -7 11 -4 17 4 7 2 8 -5 4 -6 -4
-8 -12 -5 -18 5 -7 -1 -9 -15 -5 -18 4 -21 2 -17 -10 5 -13 4 -13 -8 -4 -11 9
-15 8 -20 -5 -4 -9 -12 -14 -22 -10 -8 3 -12 2 -9 -4 3 -6 -1 -10 -10 -10 -8
0 -18 -7 -21 -15 -4 -8 -18 -15 -33 -15 -20 0 -23 -2 -11 -10 13 -8 12 -10 -3
-10 -11 0 -15 -4 -11 -12 5 -8 2 -9 -10 -5 -9 4 -15 3 -12 -2 3 -4 -2 -17 -10
-27 -9 -10 -13 -12 -9 -4 4 8 -1 6 -9 -4 -9 -11 -16 -24 -16 -29 0 -4 -4 -5
-10 -2 -5 3 -10 -1 -10 -9 0 -9 -7 -16 -16 -16 -10 0 -14 -6 -11 -14 3 -8 -5
-18 -20 -25 -17 -8 -23 -17 -19 -28 6 -14 4 -14 -11 -2 -9 8 -14 9 -10 3 3 -6
-6 -26 -22 -44 -18 -22 -26 -41 -23 -55 5 -16 3 -18 -9 -8 -11 9 -14 6 -15
-19 -1 -17 -9 -35 -18 -40 -9 -5 -13 -14 -10 -20 5 -8 1 -9 -10 -5 -14 5 -15
3 -6 -12 7 -15 5 -22 -13 -35 -12 -9 -17 -14 -10 -11 8 4 8 -1 0 -20 -7 -14
-17 -23 -23 -21 -6 2 -9 -9 -7 -31 1 -22 -3 -36 -12 -39 -7 -3 -11 -12 -9 -19
3 -7 0 -16 -7 -21 -8 -5 -10 -3 -4 6 5 9 4 11 -4 6 -9 -6 -9 -11 0 -22 9 -11
9 -14 0 -14 -7 0 -10 -4 -7 -9 3 -5 -1 -12 -10 -15 -15 -6 -15 -8 2 -27 17
-19 17 -20 -1 -13 -13 5 -16 4 -11 -4 4 -7 2 -12 -6 -12 -9 0 -9 -3 2 -10 13
-9 13 -10 0 -10 -12 0 -12 -2 -2 -9 11 -6 10 -10 -3 -15 -14 -5 -15 -9 -5 -21
11 -13 7 -19 -11 -17 -3 1 -6 -5 -6 -13 0 -8 4 -12 9 -9 4 3 4 -6 -2 -20 -5
-14 -6 -26 -2 -26 4 0 0 -5 -8 -10 -12 -8 -12 -10 5 -11 l20 0 -20 -9 c-11 -5
-14 -9 -7 -9 6 -1 12 -6 12 -12 0 -5 -6 -7 -12 -3 -10 6 -10 4 0 -8 10 -13 10
-18 1 -24 -8 -5 -9 -3 -4 6 5 8 4 11 -3 6 -14 -9 -3 -38 12 -30 6 3 3 -1 -6
-9 -21 -16 -24 -32 -6 -21 9 5 9 2 -1 -9 -11 -14 -11 -17 0 -17 8 0 6 -5 -6
-13 -14 -11 -15 -16 -5 -22 9 -6 11 -4 5 5 -5 9 -4 11 4 6 9 -6 9 -11 0 -22
-6 -7 -9 -21 -5 -29 3 -8 0 -15 -7 -16 -7 0 -3 -4 8 -9 11 -5 14 -9 8 -9 -7
-1 -13 -8 -13 -17 0 -8 4 -13 8 -10 4 2 8 -4 8 -14 0 -13 -4 -16 -12 -9 -8 7
-10 2 -6 -16 2 -14 7 -23 11 -21 4 3 7 -6 7 -20 0 -13 -5 -24 -10 -24 -6 0 -4
-5 4 -10 13 -9 13 -10 0 -10 -9 0 -11 -3 -5 -8 6 -4 16 -15 24 -25 12 -16 12
-17 -5 -10 -17 6 -17 5 -6 -10 8 -9 11 -21 7 -27 -4 -7 2 -14 16 -17 22 -6 22
-7 3 -14 -16 -7 -17 -8 -1 -8 10 -1 17 -9 17 -22 0 -11 4 -17 10 -14 5 3 10
-1 10 -9 0 -26 1 -30 13 -45 10 -12 9 -14 -4 -9 -10 4 -16 1 -16 -8 0 -8 5
-14 11 -14 6 0 4 -5 -4 -10 -8 -5 -11 -10 -6 -10 5 0 3 -7 -5 -16 -10 -13 -10
-17 0 -24 9 -5 10 -10 2 -14 -8 -5 -8 -13 0 -28 10 -18 9 -20 -6 -14 -15 5
-16 4 -5 -9 7 -8 9 -15 6 -15 -4 0 -3 -8 3 -17 6 -12 5 -21 -7 -31 -10 -7 -11
-11 -5 -7 7 3 13 1 13 -4 0 -6 -6 -11 -12 -11 -9 0 -8 -4 2 -10 14 -9 7 -14
-13 -11 -5 1 -6 -3 -2 -8 3 -6 13 -7 23 -4 15 6 15 5 3 -10 -7 -9 -9 -17 -4
-17 5 0 9 -9 9 -19 0 -11 -4 -18 -8 -15 -4 2 -6 -5 -5 -16 1 -11 4 -20 8 -20
4 0 10 -7 13 -16 3 -8 2 -13 -3 -10 -5 3 -12 -1 -15 -10 -3 -8 -2 -12 4 -9 10
6 15 -13 11 -52 -1 -13 2 -23 7 -23 5 0 9 -7 9 -15 0 -8 -5 -15 -11 -15 -7 0
-7 -3 -1 -8 13 -9 18 -31 11 -49 -4 -11 -10 -11 -26 -3 -14 8 -20 8 -20 0 0
-7 -12 -9 -31 -6 -24 3 -29 1 -25 -10 4 -11 -1 -10 -21 3 -15 10 -24 12 -20 6
5 -8 3 -13 -3 -13 -6 0 -8 -6 -4 -12 4 -7 -1 -5 -12 4 -14 12 -24 14 -37 7 -9
-6 -17 -6 -17 -1 0 10 -26 8 -54 -3 -10 -5 -21 -3 -25 3 -4 7 -12 8 -20 2 -9
-5 -20 -2 -30 9 -9 9 -11 10 -6 2 8 -12 7 -12 -12 -3 -17 9 -22 9 -27 -4 -4
-9 -11 -12 -18 -7 -14 8 -19 10 -44 12 -9 1 -12 6 -8 14 6 9 4 9 -8 -1 -13
-10 -17 -10 -22 4 -4 9 -9 14 -13 11 -3 -4 -12 1 -19 11 -9 11 -13 13 -14 4 0
-7 -4 -11 -8 -8 -5 3 -9 -1 -9 -9 0 -8 5 -15 10 -15 5 0 4 -7 -3 -15 -10 -12
-9 -15 6 -15 16 0 17 -2 4 -10 -13 -8 -13 -10 2 -10 11 0 16 -6 13 -20 -2 -11
1 -23 7 -26 7 -5 8 -2 3 7 -5 8 -4 11 0 6 5 -4 10 -18 12 -30 2 -17 1 -19 -7
-7 -6 9 -10 10 -10 3 0 -6 5 -15 11 -18 6 -4 8 -13 5 -21 -3 -9 0 -11 11 -7 9
4 14 2 11 -3 -3 -5 2 -24 12 -42 17 -30 19 -32 29 -15 7 12 10 13 11 4 0 -9 8
-5 23 11 13 14 31 24 41 22 15 -2 15 0 4 14 -11 13 -11 14 2 7 8 -5 27 -8 43
-7 16 1 26 -1 23 -6 -2 -4 6 -8 19 -8 13 0 21 4 19 8 -3 5 -11 5 -17 2 -7 -4
-9 -3 -4 1 9 10 57 14 51 4 -2 -4 3 -10 12 -13 11 -4 15 -2 11 7 -3 7 3 13 13
13 10 0 17 -3 14 -7 -2 -4 3 -9 11 -13 8 -3 17 0 21 6 5 7 2 8 -7 3 -8 -5 -10
-4 -6 0 12 14 38 15 30 2 -3 -7 -3 -9 2 -5 4 4 15 2 23 -5 9 -6 13 -7 10 -2
-3 6 0 16 8 23 11 10 14 10 14 0 0 -8 5 -6 11 5 7 12 15 15 27 8 11 -6 24 -6
36 1 9 5 20 7 23 4 3 -3 19 4 36 16 28 20 30 20 24 4 -6 -15 -5 -17 6 -8 8 7
17 9 20 5 4 -3 7 2 7 13 0 16 2 17 10 4 7 -10 10 -11 10 -2 0 7 12 17 26 22
20 8 24 13 15 24 -6 7 -8 16 -4 19 3 4 1 7 -7 7 -10 0 -10 3 0 15 10 12 10 15
0 15 -9 0 -9 4 1 17 12 14 12 16 0 8 -11 -6 -13 -3 -9 13 4 12 3 20 -2 17 -4
-3 -11 2 -14 11 -3 8 -2 12 4 9 6 -3 10 -1 10 4 0 6 -4 11 -8 11 -4 0 -8 11
-8 24 0 14 3 23 6 21 5 -3 6 24 1 68 -1 5 -5 6 -9 3 -4 -2 -7 19 -5 47 3 40 1
49 -8 37 -9 -13 -10 -12 -5 3 3 10 6 21 6 23 0 3 4 3 8 0 11 -7 8 31 -3 41 -4
5 -5 2 0 -6 5 -9 4 -12 -3 -7 -6 4 -9 13 -6 21 4 8 10 13 14 10 5 -3 6 4 3 15
-3 11 -9 18 -13 15 -5 -3 -12 0 -16 6 -4 8 -3 9 4 5 7 -4 12 -2 12 4 0 6 6 8
12 4 10 -6 11 -4 1 7 -16 16 -17 33 -2 23 8 -5 8 -1 0 13 -8 15 -7 25 4 39 8
11 15 14 15 9 0 -6 -3 -15 -7 -21 -5 -5 2 2 15 16 13 14 22 19 20 11 -2 -8 6
-14 20 -16 12 -1 22 3 22 9 0 6 4 5 9 -3 6 -9 11 -10 15 -2 5 8 13 8 26 1 13
-7 21 -7 26 2 4 7 3 8 -4 4 -7 -4 -12 -2 -12 5 0 6 8 9 20 6 11 -3 18 -1 14 4
-3 5 2 9 10 9 8 0 20 9 26 20 6 11 15 18 19 15 5 -2 8 3 7 13 0 10 5 16 15 14
9 -1 16 4 16 13 0 8 -5 12 -11 9 -6 -3 0 3 13 14 15 12 20 22 13 26 -6 4 -9
13 -6 21 4 8 9 13 13 11 4 -3 8 4 8 15 1 11 -3 17 -9 13 -6 -4 -6 1 1 14 14
27 14 45 -1 36 -7 -4 -8 -3 -4 5 4 6 12 9 17 5 6 -3 9 2 7 12 -2 11 2 18 10
17 17 -4 15 2 -5 18 -14 12 -16 12 -8 0 5 -9 4 -12 -3 -7 -6 4 -9 13 -6 21 4
8 9 13 13 10 4 -2 8 2 8 10 0 8 -3 12 -7 10 -4 -2 -7 3 -7 11 0 9 6 13 15 9
12 -4 12 -3 3 9 -9 11 -10 20 -2 35 8 14 8 22 0 27 -8 4 -7 9 2 15 12 7 12 9
0 9 -11 0 -11 3 0 17 12 15 12 16 -1 8 -9 -5 -7 1 5 15 11 13 15 20 8 17 -6
-4 -14 -3 -18 3 -3 5 1 10 10 10 13 0 14 4 4 22 -10 18 -9 20 7 14 16 -6 16
-5 -2 15 -10 12 -13 19 -5 14 11 -6 13 -4 8 8 -4 12 -1 17 11 18 13 0 11 3 -5
9 -13 5 -23 12 -23 15 0 4 5 3 10 0 6 -3 10 1 10 10 0 9 4 14 8 11 5 -3 6 9 4
26 -3 19 1 33 9 39 12 7 12 9 0 9 -11 0 -10 4 5 16 10 8 13 13 7 9 -7 -3 -13
-1 -13 4 0 6 5 11 11 11 5 0 7 5 4 10 -4 6 -1 18 7 27 11 14 11 16 -2 8 -10
-6 -9 -2 3 12 10 12 14 24 9 27 -5 3 -7 19 -4 35 2 17 7 29 11 26 4 -2 8 2 8
10 0 8 -5 12 -10 8 -5 -3 -4 4 2 14 6 11 7 23 4 27 -3 3 -1 6 5 6 6 0 9 6 6
14 -3 8 -1 17 4 20 6 3 8 16 4 28 -3 13 -1 19 5 15 6 -4 8 3 5 18 -2 14 3 36
13 51 9 15 12 23 6 20 -6 -4 -11 -3 -11 2 0 6 6 12 13 15 8 3 12 18 11 36 -1
17 2 28 7 25 5 -3 7 -10 4 -15 -4 -5 -1 -9 4 -9 6 0 11 8 11 17 0 15 2 14 16
-3 8 -10 13 -13 9 -6 -10 20 9 14 25 -8 16 -22 36 -28 24 -7 -4 6 4 1 19 -12
14 -12 30 -20 36 -16 6 3 11 1 11 -5 0 -6 5 -8 10 -5 6 3 10 1 10 -4 0 -6 9
-11 20 -11 11 0 20 -4 20 -10 0 -5 9 -10 20 -10 11 0 20 -6 20 -14 0 -9 7 -12
20 -9 11 3 20 0 20 -6 0 -6 9 -11 20 -11 11 0 20 -4 20 -10 0 -5 10 -10 23
-10 18 0 19 -2 7 -10 -12 -8 -9 -10 13 -10 15 0 36 -9 47 -20 12 -12 26 -17
36 -13 11 4 15 3 10 -5 -4 -6 3 -16 16 -23 20 -10 22 -10 13 2 -5 8 -3 7 6 -3
9 -9 19 -14 23 -11 3 4 6 1 6 -6 0 -7 5 -9 10 -6 6 3 10 1 10 -5 0 -6 5 -8 10
-5 6 3 13 -1 16 -9 3 -9 12 -16 20 -16 8 0 14 -4 14 -10 0 -5 10 -10 23 -10
18 0 19 -2 7 -11 -12 -9 -11 -10 7 -6 16 4 20 1 16 -11 -4 -10 -2 -13 5 -8 6
3 13 2 17 -4 4 -6 10 -8 14 -6 4 3 8 -1 8 -8 0 -8 -7 -12 -14 -9 -8 3 -13 0
-11 -8 2 -7 -1 -13 -7 -14 -15 0 -85 -72 -85 -87 0 -10 -3 -9 -10 2 -8 12 -10
11 -10 -7 0 -13 -4 -23 -10 -23 -5 0 -10 -7 -10 -16 0 -8 -4 -12 -10 -9 -5 3
-10 1 -10 -4 0 -6 5 -11 12 -11 6 0 1 -8 -10 -19 -12 -10 -18 -22 -14 -27 4
-4 -2 -2 -13 6 -11 8 -17 10 -13 6 4 -5 0 -15 -10 -23 -11 -10 -12 -12 -2 -8
10 4 10 2 -2 -8 -14 -11 -15 -16 -5 -26 9 -10 8 -11 -7 -5 -16 6 -18 4 -14
-19 4 -21 2 -25 -8 -17 -9 9 -12 5 -10 -14 2 -14 0 -25 -3 -24 -19 2 -22 -4
-10 -19 11 -13 11 -15 1 -9 -9 5 -15 1 -19 -13 -3 -12 -10 -21 -15 -21 -6 0
-5 -7 2 -15 11 -13 10 -14 -4 -9 -12 5 -16 0 -16 -20 0 -14 0 -29 1 -33 0 -3
-7 -10 -16 -15 -13 -8 -14 -13 -4 -24 9 -11 8 -14 -7 -14 -11 0 -15 -4 -9 -8
12 -9 13 -48 1 -59 -5 -5 -6 -2 -1 6 5 10 4 12 -3 7 -9 -5 -9 -13 -2 -27 9
-15 7 -21 -5 -25 -8 -3 -12 -10 -9 -15 3 -5 0 -9 -5 -9 -6 0 -11 -5 -11 -11 0
-5 4 -8 8 -5 5 3 9 -1 9 -9 0 -8 -5 -13 -10 -12 -5 1 -12 -4 -15 -12 -3 -10 0
-11 9 -5 12 7 12 5 1 -9 -15 -18 -24 -69 -11 -61 5 3 9 1 9 -5 0 -5 -6 -11
-12 -13 -15 -5 -17 -40 -3 -50 6 -5 5 -8 -2 -8 -7 0 -13 -5 -13 -11 0 -5 6 -7
13 -3 9 5 9 4 0 -6 -6 -7 -9 -19 -6 -26 3 -9 -1 -14 -12 -14 -9 0 -13 -5 -10
-10 4 -6 12 -8 18 -4 7 3 4 -1 -6 -9 -13 -11 -15 -16 -5 -19 10 -4 10 -9 -2
-23 -8 -10 -10 -16 -3 -12 8 5 11 0 10 -13 -1 -11 -6 -20 -12 -20 -5 0 -4 -4
3 -9 8 -4 14 -12 14 -17 0 -5 3 -8 7 -7 4 1 8 -4 8 -12 0 -8 -4 -12 -9 -9 -4
3 -8 0 -8 -5 0 -6 4 -11 8 -11 4 0 8 -11 8 -24 0 -15 -4 -22 -10 -19 -6 4 -2
-4 9 -17 11 -13 14 -20 8 -16 -9 5 -11 2 -7 -8 3 -9 10 -13 15 -10 5 3 6 -2 3
-10 -3 -9 -10 -13 -15 -10 -5 3 -6 -2 -3 -10 3 -9 11 -13 17 -9 6 4 8 0 4 -10
-3 -10 -2 -17 3 -17 6 0 10 -5 10 -11 0 -5 -6 -7 -12 -3 -7 4 -5 -2 4 -13 21
-23 23 -43 6 -43 -8 0 -9 -3 -3 -8 12 -8 18 -29 17 -55 0 -10 4 -15 10 -11 7
5 9 1 5 -9 -4 -10 -1 -17 6 -18 7 0 3 -4 -8 -9 -19 -8 -18 -9 4 -9 21 -1 22
-3 10 -18 -7 -10 -10 -15 -5 -11 12 10 45 -34 38 -51 -3 -8 -1 -12 5 -8 6 4
11 1 10 -6 -1 -35 4 -48 16 -41 9 6 9 4 -1 -8 -10 -13 -10 -17 3 -22 9 -3 13
-10 10 -16 -3 -5 -3 -10 2 -10 4 0 17 -12 27 -27 11 -14 14 -23 8 -19 -7 4
-12 2 -12 -3 0 -10 14 -15 33 -12 5 1 6 -3 3 -8 -4 -5 0 -12 6 -14 10 -4 9 -6
-1 -6 -10 -1 -9 -6 5 -19 11 -9 25 -29 33 -44 8 -16 18 -28 23 -28 5 0 6 5 2
12 -4 7 -3 8 5 4 6 -4 9 -11 6 -16 -7 -11 15 -60 27 -60 5 0 8 -6 6 -14 -2 -7
11 -26 27 -42 17 -16 35 -38 40 -48 6 -9 14 -17 19 -16 5 1 14 -9 20 -22 7
-14 21 -23 34 -22 17 0 19 -2 10 -13 -8 -10 -7 -12 4 -8 10 4 24 -5 38 -22 13
-15 20 -20 17 -10 -9 23 -2 22 27 -8 15 -15 31 -22 40 -19 11 4 19 -2 25 -17
5 -13 10 -18 10 -11 1 6 8 12 17 12 8 0 13 -4 10 -9 -3 -5 1 -12 10 -15 8 -3
12 -2 9 4 -3 6 1 7 9 4 9 -3 16 -10 16 -14 0 -5 9 -7 20 -5 11 2 20 -1 20 -6
0 -6 5 -7 10 -4 6 3 10 0 10 -7 0 -9 3 -9 10 2 9 13 10 13 10 0 0 -13 1 -13
10 0 8 12 10 12 10 1 0 -8 7 -11 19 -8 10 2 26 0 36 -6 13 -7 16 -6 10 3 -6 9
-3 9 14 1 17 -10 21 -9 21 4 0 9 5 13 10 10 6 -4 8 -9 6 -13 -2 -4 6 -7 19 -7
16 0 21 4 17 15 -5 13 -3 13 11 1 13 -10 17 -10 17 -1 0 7 7 10 15 6 8 -3 15
0 15 7 0 8 4 6 10 -3 6 -10 10 -11 10 -3 0 8 11 11 30 9 17 -2 33 0 36 5 8 14
26 10 18 -3 -5 -10 -4 -10 6 -1 7 6 19 9 28 6 11 -5 13 -3 7 8 -7 12 -6 12 7
1 13 -10 17 -10 22 4 5 12 10 13 19 6 8 -7 18 -7 27 -2 9 5 19 5 27 -2 9 -7
14 -6 19 5 3 9 12 13 20 10 8 -3 14 1 14 8 0 11 3 11 10 -1 7 -11 10 -11 10
-2 0 7 4 11 9 8 4 -3 19 3 31 14 18 15 27 17 42 9 16 -9 19 -8 13 2 -6 9 -3
11 9 6 9 -4 15 -3 12 2 -3 5 1 12 10 15 8 3 13 2 9 -3 -8 -14 17 -7 44 11 13
10 29 14 34 11 6 -4 8 0 5 9 -5 11 0 14 17 12 17 -1 22 2 18 12 -3 9 0 14 8
12 8 -2 13 2 12 8 -1 6 9 10 23 8 13 -1 22 2 18 7 -3 5 4 9 16 9 11 0 23 6 26
14 3 8 12 12 19 10 7 -3 19 4 25 16 7 12 18 19 26 16 8 -3 14 1 14 10 0 8 5
12 10 9 6 -3 13 1 16 10 5 12 9 13 20 4 12 -10 13 -9 8 5 -4 11 -2 16 7 14 8
-2 13 3 11 10 -1 8 2 11 7 8 5 -3 14 1 21 10 7 8 20 12 28 9 12 -5 13 -3 2 10
-11 13 -11 16 1 13 8 -2 13 3 12 10 -2 6 4 12 14 12 9 0 13 3 10 6 -3 4 5 15
18 26 14 11 22 25 18 31 -4 7 0 8 11 4 10 -4 15 -3 11 3 -3 6 -1 10 4 10 6 0
10 3 10 8 -3 20 2 32 14 29 6 -1 11 4 10 11 -2 6 3 12 10 12 7 0 18 9 25 21
11 17 11 20 0 14 -7 -4 -2 3 12 15 14 12 18 19 10 15 -8 -4 -5 2 6 12 12 10
24 31 28 46 4 15 11 25 16 22 6 -3 11 -1 11 4 1 6 2 16 3 22 0 6 8 16 17 22 9
7 15 20 13 30 -2 15 0 16 14 5 9 -8 13 -8 9 -1 -9 14 2 45 14 37 5 -3 6 2 3
10 -3 9 -1 16 5 16 7 0 10 10 7 24 -3 14 2 30 10 37 7 6 12 15 9 19 -3 4 2 11
11 14 9 4 14 13 10 21 -3 8 -1 15 5 15 6 0 7 4 4 10 -7 12 19 52 28 45 4 -3 3
1 -3 7 -14 17 -12 31 3 22 9 -6 9 -4 1 7 -12 16 -12 29 0 48 6 10 5 12 -3 7
-6 -4 -3 7 7 26 10 18 17 39 14 47 -3 9 0 11 8 6 9 -5 11 -4 6 4 -15 24 -14
61 2 61 13 0 12 3 -4 15 -11 8 -14 14 -6 15 9 0 10 6 4 18 -4 9 -7 23 -6 30 1
6 2 19 3 27 1 16 41 22 41 6 0 -5 9 -11 20 -14 11 -3 18 -1 14 4 -3 5 2 6 10
3 9 -3 13 -11 10 -16 -4 -6 4 -5 16 2 18 10 24 9 31 -1 7 -11 9 -11 10 1 0 10
3 8 9 -5 5 -12 9 -14 9 -6 1 11 5 10 17 -5 8 -10 12 -12 8 -4 -6 12 -4 13 7 2
7 -6 23 -12 35 -12 12 0 24 -4 26 -10 2 -5 15 -11 31 -12 15 -1 27 -6 27 -11
0 -4 5 -5 10 -2 6 3 10 -1 10 -9 0 -9 5 -16 11 -16 5 0 8 4 5 8 -2 4 4 8 14 8
10 0 16 -4 14 -8 -5 -7 10 -12 29 -9 4 0 7 -4 7 -10 0 -8 6 -7 17 2 9 8 14 9
10 3 -4 -8 10 -17 39 -25 26 -8 48 -19 51 -25 2 -7 13 -10 24 -7 11 3 19 0 19
-6 0 -7 4 -10 9 -6 6 3 14 -3 20 -12 6 -10 11 -12 11 -5 0 6 5 12 11 12 6 0 8
-7 5 -16 -5 -14 -4 -15 8 -5 11 9 17 8 29 -3 8 -8 18 -12 22 -8 5 4 5 -2 1
-12 -5 -16 -4 -17 9 -6 10 8 15 9 15 1 0 -6 6 -10 13 -8 6 1 11 -4 10 -10 -2
-7 2 -13 7 -13 15 0 12 -18 -7 -38 -33 -33 -50 -57 -34 -47 10 5 12 4 7 -3 -4
-7 -14 -12 -21 -12 -9 0 -12 -6 -8 -17 5 -12 3 -14 -7 -8 -10 6 -12 4 -6 -10
6 -16 4 -16 -11 -4 -13 11 -15 11 -9 1 12 -20 -14 -64 -33 -57 -8 3 -12 3 -8
-1 4 -4 1 -14 -6 -22 -10 -13 -9 -15 3 -8 12 6 11 5 -1 -6 -9 -7 -21 -23 -28
-35 -6 -13 -19 -23 -29 -23 -15 0 -15 -2 -2 -10 11 -7 11 -10 2 -10 -7 0 -10
-4 -7 -10 4 -6 -1 -7 -11 -3 -14 5 -16 3 -11 -11 4 -10 3 -15 -3 -11 -6 3 -10
1 -10 -5 0 -6 -4 -8 -10 -5 -6 4 -7 -1 -3 -11 4 -12 3 -15 -5 -10 -8 5 -10 2
-6 -8 4 -11 0 -16 -12 -16 -16 0 -17 -2 -4 -10 13 -8 12 -10 -2 -10 -10 0 -17
-3 -17 -7 3 -19 -2 -33 -12 -33 -5 0 -7 5 -3 12 4 7 3 8 -5 4 -9 -6 -9 -11 1
-24 7 -9 8 -13 2 -9 -6 3 -16 -3 -24 -13 -8 -10 -18 -16 -24 -13 -6 4 -4 -2 4
-12 9 -11 10 -16 3 -11 -18 10 -39 -4 -22 -15 11 -7 10 -9 -3 -9 -10 0 -22 -9
-28 -20 -7 -12 -16 -18 -23 -13 -8 4 -8 2 1 -9 10 -13 10 -18 1 -24 -8 -5 -10
-3 -5 7 4 8 1 6 -7 -3 -8 -10 -18 -14 -22 -10 -5 4 -5 -1 -2 -10 4 -12 1 -18
-9 -18 -8 0 -12 -4 -9 -10 3 -5 -1 -10 -9 -10 -9 0 -16 -7 -16 -15 0 -9 -6
-12 -17 -8 -11 4 -14 3 -9 -5 8 -13 -15 -42 -33 -42 -5 0 -13 -5 -17 -12 -5
-7 -2 -9 7 -4 8 4 4 -2 -9 -13 -13 -11 -21 -25 -17 -31 4 -6 -1 -7 -11 -3 -12
4 -15 3 -10 -5 4 -7 2 -12 -4 -12 -6 0 -8 -5 -4 -12 5 -8 2 -9 -10 -5 -9 4
-15 3 -12 -2 3 -5 -1 -12 -10 -15 -14 -5 -14 -9 -3 -23 10 -12 10 -14 2 -9 -8
4 -13 2 -13 -4 0 -6 -5 -8 -12 -4 -9 5 -9 2 1 -9 9 -11 10 -17 2 -17 -6 0 -11
-5 -11 -11 0 -5 6 -7 13 -4 6 4 3 -1 -7 -9 -11 -9 -14 -16 -8 -16 7 0 12 -5
12 -11 0 -5 -6 -7 -12 -3 -10 5 -10 4 -1 -6 10 -11 9 -17 -4 -32 -16 -18 -16
-18 3 -12 17 7 18 6 4 -11 -9 -11 -10 -16 -2 -11 8 5 12 -1 12 -19 0 -18 14
-40 42 -68 23 -23 37 -35 33 -27 -8 13 -6 13 8 2 18 -16 9 -39 -30 -77 -13
-12 -20 -25 -16 -28 3 -4 1 -8 -5 -8 -27 -3 -31 -4 -39 -13 -5 -5 -2 -6 6 -1
10 6 12 4 7 -4 -5 -7 -15 -10 -23 -7 -8 3 -11 1 -8 -4 8 -13 -17 -38 -33 -32
-8 2 -10 -2 -5 -14 4 -12 3 -15 -5 -10 -7 4 -12 2 -12 -5 0 -7 -3 -9 -7 -6 -3
4 -16 -4 -28 -18 -13 -13 -26 -21 -29 -17 -4 3 -9 -4 -13 -16 -4 -18 -8 -20
-19 -11 -12 9 -13 9 -8 -4 4 -12 1 -15 -15 -12 -12 2 -19 1 -17 -4 3 -4 1 -13
-5 -21 -7 -13 -9 -13 -9 0 -1 8 -5 4 -11 -9 -6 -15 -14 -21 -25 -17 -8 3 -12
2 -9 -4 3 -6 -3 -10 -14 -10 -12 0 -21 -7 -21 -15 0 -9 -6 -12 -17 -8 -10 4
-14 2 -9 -5 3 -6 -3 -17 -14 -25 -19 -13 -19 -16 -6 -30 8 -8 13 -17 10 -19
-2 -3 5 -13 15 -22 11 -10 17 -24 14 -32 -3 -8 1 -14 8 -14 7 0 9 -3 6 -6 -3
-4 -1 -16 5 -28 7 -11 11 -25 10 -30 -2 -5 3 -4 10 2 11 8 14 7 16 -9 4 -41 6
-48 12 -44 4 2 18 -16 30 -40 13 -25 29 -45 37 -45 7 0 13 -5 13 -10 0 -6 11
-20 25 -32 14 -12 25 -28 25 -35 0 -7 11 -18 24 -23 13 -5 28 -15 32 -22 5 -9
2 -9 -12 2 -12 9 -10 5 5 -13 14 -15 26 -41 27 -58 2 -27 1 -29 -14 -17 -15
11 -15 11 -5 -3 7 -9 11 -19 8 -22 -3 -4 -2 -5 2 -2 3 3 17 -2 31 -11 13 -9
22 -12 19 -7 -3 5 3 15 15 22 11 7 18 8 14 3 -3 -5 1 -9 9 -9 8 0 13 5 12 11
-1 5 5 11 13 12 37 3 41 5 35 14 -4 6 1 7 11 3 14 -5 16 -3 11 12 -6 15 -5 16
8 5 10 -8 15 -9 15 -2 0 7 7 9 17 5 11 -4 14 -3 9 5 -5 8 -2 10 8 6 9 -3 16
-1 16 5 0 6 5 11 11 11 5 0 7 -6 3 -13 -5 -9 -4 -9 5 -1 6 6 9 18 6 27 -8 19
-35 31 -35 15 0 -7 -7 -3 -16 8 -8 10 -13 14 -10 8 3 -6 -1 -11 -8 -11 -8 0
-12 9 -10 21 3 12 2 15 -2 9 -4 -10 -9 -9 -21 2 -8 8 -20 12 -26 8 -8 -4 -8
-2 1 9 10 13 9 18 -5 29 -15 12 -16 12 -8 -1 5 -8 -6 0 -23 18 -18 19 -36 30
-43 27 -8 -5 -9 -1 -4 14 5 17 3 20 -11 14 -13 -5 -15 -3 -9 7 6 10 4 12 -9 7
-9 -4 -15 -3 -11 2 10 16 -6 40 -22 34 -11 -4 -14 -2 -9 5 4 7 2 12 -5 12 -7
0 -10 3 -6 6 3 4 -4 15 -16 26 -12 11 -15 16 -7 13 8 -4 -1 7 -20 25 -19 18
-29 29 -23 26 9 -5 11 -2 7 8 -3 9 -12 16 -18 16 -7 0 -13 7 -13 15 0 8 4 15
8 15 5 0 5 8 2 18 -6 15 -5 16 12 2 15 -12 17 -12 10 -1 -6 11 -4 13 8 8 12
-4 14 -2 10 10 -5 13 -2 15 16 10 18 -4 24 -1 28 14 3 10 14 19 24 19 11 0 18
3 17 8 -2 4 2 9 7 11 20 9 33 26 27 36 -3 6 2 4 12 -4 15 -12 17 -12 14 0 -2
8 3 13 10 11 11 -2 16 10 13 30 0 4 6 5 14 2 8 -4 15 -1 15 6 0 6 5 8 10 5 6
-3 10 1 10 10 0 8 13 23 30 34 16 10 27 21 23 24 -6 7 13 11 31 8 5 -1 4 4 -2
12 -10 11 -9 17 5 28 17 13 17 13 3 -6 -8 -11 0 -6 17 10 16 17 34 40 38 53 4
13 9 21 12 18 3 -2 14 4 26 15 22 21 42 26 31 8 -3 -6 4 -4 17 4 13 8 32 13
42 12 13 -2 17 1 13 11 -6 16 5 18 22 4 6 -6 10 -7 8 -4 -3 3 1 12 7 19 9 9
17 10 31 3 13 -7 16 -7 11 1 -8 15 12 41 32 41 19 0 46 27 38 39 -3 6 3 8 14
6 13 -2 22 3 26 16 4 11 9 18 12 15 3 -3 20 11 38 30 18 18 39 34 46 34 10 0
11 2 2 8 -8 5 -3 15 18 31 16 13 26 27 23 32 -5 8 8 13 27 11 4 -1 6 6 5 16 0
10 6 17 15 16 11 -1 14 5 11 23 -4 19 -1 22 13 16 14 -5 16 -3 10 7 -6 10 -4
12 8 7 11 -4 15 -1 12 13 -2 10 3 21 11 24 8 3 14 13 14 22 0 11 5 14 16 10
13 -5 14 -4 6 7 -9 10 -7 16 8 27 10 7 17 17 14 22 -3 4 -1 8 4 8 10 0 25 38
23 54 -1 5 6 6 15 2 13 -5 14 -4 6 7 -9 10 -6 17 8 27 22 16 27 35 8 25 -7 -4
-5 0 4 8 14 11 15 16 5 27 -9 9 -9 11 0 6 13 -7 28 28 18 44 -4 6 1 7 11 3 13
-5 15 -2 10 15 -4 12 -2 23 5 28 8 5 9 3 4 -6 -5 -9 -4 -11 4 -6 9 6 9 11 -1
24 -11 13 -11 14 1 7 11 -6 13 -4 8 10 -5 11 -1 23 10 32 10 8 13 12 6 9 -7
-4 -9 1 -6 14 3 11 9 20 13 20 4 0 6 11 5 25 -2 16 1 23 7 18 7 -4 9 2 6 15
-4 14 -2 20 4 16 6 -4 8 2 3 16 -6 17 -4 21 6 14 12 -6 12 -5 1 8 -11 14 -10
18 5 27 17 10 17 10 -1 11 -15 0 -16 3 -6 15 10 12 10 15 -1 15 -9 1 -8 4 4
11 14 8 16 14 6 25 -6 8 -7 14 -2 14 6 0 9 14 7 32 -2 17 2 38 9 46 10 13 9
15 -6 9 -16 -6 -17 -5 -3 14 9 14 12 29 7 43 -5 11 -7 31 -5 43 2 12 -1 25 -7
28 -7 5 -6 11 2 21 10 12 9 13 -5 8 -19 -7 -21 6 -3 25 7 9 7 11 1 8 -7 -4
-15 0 -18 9 -3 8 -2 12 4 9 5 -3 7 1 4 9 -3 8 -12 17 -21 20 -9 4 -13 13 -9
22 3 8 2 12 -4 9 -6 -3 -10 1 -10 10 0 9 -4 13 -10 10 -5 -3 -7 0 -4 8 3 9 -3
17 -16 20 -12 3 -19 10 -16 15 7 11 -17 34 -27 27 -4 -3 -5 -2 -2 1 6 9 -21
34 -37 34 -10 0 -9 3 2 10 12 8 11 10 -6 10 -12 0 -25 7 -28 16 -4 9 -13 14
-22 10 -8 -3 -12 -2 -9 4 3 5 -5 15 -19 22 -14 6 -26 15 -26 20 0 5 -4 7 -9 3
-5 -3 -17 2 -25 11 -9 8 -16 12 -16 8 0 -4 -7 1 -16 12 -8 10 -12 12 -8 4 7
-13 6 -13 -12 0 -10 8 -22 20 -26 25 -5 6 -8 5 -8 -4 0 -8 -8 -4 -20 10 -12
15 -19 19 -20 10 0 -10 -5 -10 -25 3 -14 9 -30 14 -35 11 -6 -3 -10 -1 -10 4
0 6 -9 11 -21 11 -13 0 -19 5 -16 13 3 8 -6 12 -29 11 -18 -1 -38 4 -44 11 -6
8 -19 11 -27 8 -12 -5 -15 -2 -10 10 5 15 3 16 -13 7 -13 -7 -21 -7 -25 0 -4
6 -11 8 -16 5 -5 -4 -9 -1 -9 5 0 6 -4 9 -9 5 -5 -3 -16 1 -24 9 -10 11 -17
12 -25 4 -8 -8 -13 -7 -18 5 -3 9 -10 14 -15 11 -5 -3 -9 -1 -9 4 0 5 -14 8
-30 7 -23 -2 -28 0 -20 10 7 8 5 12 -5 12 -8 0 -15 -5 -15 -10 0 -6 -8 -1 -18
11 -17 19 -19 19 -30 4 -11 -16 -11 -16 -6 1 6 16 -7 21 -53 20 -7 -1 -10 4
-6 10 4 6 -2 8 -15 5 -12 -3 -21 -3 -20 1 2 20 -4 30 -15 25 -8 -3 -13 3 -13
15 0 11 4 17 8 15 4 -3 8 0 8 6 0 6 5 8 10 5 6 -4 13 8 16 25 5 21 11 29 21
26 8 -3 11 -1 8 4 -3 6 0 10 7 10 9 0 9 3 -2 10 -13 8 -12 10 3 10 10 0 15 5
12 10 -3 5 -1 10 5 10 7 0 9 7 6 16 -3 8 -2 12 4 9 6 -3 10 -1 10 5 0 6 6 8
13 4 9 -5 9 -4 0 6 -10 11 -9 16 5 27 9 8 11 11 3 7 -9 -5 -12 -3 -7 4 4 7 14
12 23 12 11 0 13 3 5 13 -7 8 -3 21 12 44 13 18 25 30 29 27 3 -3 3 3 0 15 -3
12 -1 21 6 21 6 0 10 3 10 8 -4 21 2 32 14 26 9 -5 9 -4 0 6 -10 11 -9 16 5
27 11 9 11 12 2 7 -12 -6 -12 -4 1 12 24 29 34 48 21 40 -7 -4 -12 -2 -12 3 0
6 5 11 10 11 6 0 10 8 8 18 -2 10 2 16 11 14 12 -3 12 0 2 12 -8 10 -9 16 -1
21 6 3 8 10 5 15 -8 13 5 61 15 55 11 -7 7 29 -5 37 -6 5 -5 8 3 8 6 0 12 5
12 11 0 5 -4 8 -8 5 -4 -2 -8 4 -8 14 0 14 4 16 13 9 9 -8 10 -4 3 19 -7 26
-6 30 8 25 10 -4 13 -2 8 5 -4 7 -2 12 3 12 6 0 11 7 11 16 0 8 5 12 10 9 6
-3 10 -1 10 5 0 6 5 8 10 5 6 -3 10 2 10 12 0 15 2 16 10 3 9 -14 11 -13 14
10 0 6 5 9 9 8 5 -2 13 5 19 16 8 15 12 16 20 5 7 -10 8 -8 5 9 -4 17 -1 22
15 22 10 0 17 3 15 8 -3 4 1 12 8 19 11 10 15 10 18 0 4 -9 6 -9 6 1 1 7 5 10
11 7 6 -3 7 1 4 9 -5 12 0 16 19 16 14 0 29 5 32 11 4 6 14 8 22 5 8 -3 11 -2
8 4 -8 13 35 60 56 60 10 0 19 5 21 12 3 7 7 5 11 -6 4 -9 3 -15 -2 -12 -20
13 -18 -23 1 -36 17 -11 19 -16 8 -23 -9 -6 -11 -4 -5 5 6 9 4 11 -4 5 -9 -5
-7 -12 9 -27 17 -16 19 -23 9 -34 -11 -13 -6 -18 16 -15 6 1 1 -6 -9 -14 -17
-13 -17 -15 -3 -15 10 0 15 -7 12 -20 -2 -12 4 -25 16 -34 13 -9 16 -16 10
-21 -6 -3 -11 -11 -11 -17 0 -6 3 -8 7 -5 11 12 33 -15 33 -40 0 -17 4 -22 13
-17 7 5 6 0 -3 -11 -9 -11 -10 -16 -2 -11 7 4 12 1 12 -9 0 -9 5 -13 10 -10 6
3 10 -3 10 -15 0 -12 4 -18 10 -15 6 4 7 -1 3 -11 -5 -12 -3 -15 6 -9 10 6 11
3 2 -14 -9 -17 -9 -20 3 -15 8 3 17 0 22 -7 5 -8 3 -10 -7 -5 -8 4 -6 1 4 -7
9 -8 17 -22 17 -31 0 -11 4 -15 13 -10 8 5 8 2 -2 -9 -11 -14 -11 -17 0 -17
12 0 12 -2 0 -9 -9 -6 -10 -10 -2 -12 7 -3 13 -14 14 -26 0 -13 7 -25 15 -28
7 -3 10 -9 7 -15 -3 -5 -1 -10 4 -10 6 0 11 -7 11 -16 0 -9 5 -12 12 -8 8 5 9
2 5 -9 -3 -9 -2 -19 4 -22 5 -4 6 -11 3 -17 -4 -7 -2 -8 4 -4 7 4 13 2 13 -3
1 -6 2 -16 3 -21 0 -6 7 -14 14 -19 8 -5 13 -11 13 -15 -3 -20 1 -26 14 -26 8
0 15 -5 15 -11 0 -5 -4 -8 -9 -5 -11 7 -8 -21 4 -31 4 -4 5 -2 1 5 -4 6 -5 12
-2 12 10 0 35 -57 29 -64 -4 -3 -1 -6 6 -6 8 0 11 -8 8 -20 -3 -12 0 -20 7
-20 8 0 13 -11 12 -27 -1 -16 7 -39 16 -52 10 -13 15 -27 12 -32 -3 -5 0 -9 5
-9 6 0 11 -5 11 -11 0 -5 -6 -7 -12 -3 -9 5 -9 3 1 -9 7 -9 17 -15 21 -12 4 2
6 -6 5 -20 -2 -17 1 -22 11 -18 9 3 14 -1 14 -12 0 -9 5 -13 10 -10 6 3 10 -1
10 -10 0 -9 4 -14 9 -11 4 3 18 -3 30 -13 14 -12 32 -18 47 -15 18 3 23 1 18
-7 -5 -8 -2 -10 8 -6 9 3 21 0 28 -6 10 -9 11 -9 5 2 -6 11 -3 13 13 9 12 -4
25 -2 28 4 4 6 10 5 15 -3 6 -10 9 -11 9 -1 0 6 7 12 16 12 8 0 13 4 10 9 -3
5 1 12 10 15 8 3 12 2 9 -4 -3 -6 -1 -10 4 -10 6 0 11 5 11 11 0 8 4 8 14 0
12 -10 19 -8 34 7 15 15 23 17 38 9 17 -10 18 -9 4 8 -14 17 -14 18 9 5 21
-11 23 -10 18 4 -6 14 -3 16 13 11 11 -4 20 -2 20 4 0 5 9 13 20 16 11 3 20
14 20 23 1 16 1 16 13 0 12 -15 14 -15 25 0 7 9 10 11 6 3 -5 -9 -3 -12 4 -7
7 4 12 15 12 24 0 10 3 13 8 7 9 -13 35 -18 27 -5 -6 9 10 14 43 13 10 -1 10
2 0 15 -10 12 -10 14 0 8 7 -4 12 -2 12 6 0 9 3 9 10 -2 8 -13 10 -13 10 2 0
11 5 15 15 12 8 -4 22 -1 30 6 8 6 18 9 24 6 5 -4 16 1 25 9 8 9 19 17 23 18
4 1 7 9 6 17 -2 10 0 10 3 3 3 -7 12 -13 20 -13 10 0 12 5 8 13 -6 9 -5 9 7 0
9 -7 28 -9 57 -3 23 4 45 3 48 -1 3 -5 14 -4 26 2 16 8 19 8 13 -1 -5 -9 -1
-10 15 -5 17 6 21 4 14 -6 -6 -12 -5 -12 8 -1 14 11 18 10 28 -9 10 -17 14
-19 21 -8 8 13 10 12 13 -10 0 -5 5 -13 10 -18 6 -5 6 -2 1 6 -6 11 -4 13 7 8
22 -8 30 3 16 20 -9 11 -7 12 8 7 18 -5 18 -5 1 9 -14 11 -15 16 -5 20 10 4
10 8 -2 16 -8 6 -11 11 -6 11 5 0 2 8 -5 17 -8 9 -9 14 -2 10 17 -11 10 17
-10 37 -20 20 -22 30 -4 20 9 -6 9 -5 0 8 -7 8 -10 18 -6 21 3 4 -2 7 -12 7
-18 0 -18 1 1 16 10 8 13 13 7 9 -7 -3 -13 -1 -13 5 0 6 -6 8 -12 5 -7 -4 -4
1 6 9 19 15 19 16 1 16 -10 0 -16 3 -12 6 3 4 0 19 -8 34 -8 15 -11 30 -8 34
4 3 -2 6 -13 6 -16 0 -17 2 -4 10 13 8 12 10 -2 10 -17 0 -23 12 -19 34 1 5
-5 6 -14 2 -9 -3 -13 -2 -10 4 3 6 -1 13 -9 16 -9 3 -13 11 -9 17 3 6 1 7 -5
3 -6 -4 -21 3 -32 14 -11 11 -26 18 -32 14 -6 -4 -8 -3 -5 2 3 6 2 16 -4 24
-7 13 -9 13 -9 0 0 -11 -3 -10 -11 4 -9 15 -13 16 -20 5 -7 -11 -9 -9 -9 6 0
17 -2 17 -10 5 -8 -12 -10 -12 -10 -1 0 8 -7 11 -20 8 -10 -3 -21 0 -24 7 -3
8 -5 7 -5 -1 -1 -7 -8 -10 -16 -7 -8 4 -22 1 -30 -6 -9 -7 -18 -10 -22 -7 -3
4 -16 -4 -28 -18 -13 -13 -26 -22 -29 -19 -3 2 -4 1 -1 -3 3 -3 -4 -13 -15
-20 -11 -8 -18 -18 -16 -22 3 -4 -6 -14 -19 -21 -14 -7 -25 -18 -25 -24 -1
-15 -48 -48 -60 -41 -5 3 -7 -4 -5 -16 2 -12 2 -19 -2 -16 -12 13 -42 -13 -38
-33 2 -12 0 -18 -6 -14 -6 3 -17 -2 -25 -12 -9 -11 -12 -13 -8 -5 4 9 3 12 -4
7 -6 -3 -9 -16 -7 -27 4 -18 2 -19 -12 -7 -10 8 -14 8 -10 1 4 -6 3 -14 -2
-17 -5 -3 -11 4 -14 15 -4 14 -10 18 -19 13 -9 -5 -8 -2 2 11 12 15 12 17 1
10 -11 -6 -13 -4 -7 10 5 14 0 24 -16 37 -20 16 -20 17 -3 11 18 -6 19 -5 5
13 -8 10 -22 25 -30 32 -13 12 -13 13 4 8 15 -5 17 -4 8 7 -7 8 -8 18 -4 22 4
5 1 5 -5 1 -8 -4 -13 -1 -13 9 0 10 -5 13 -13 9 -7 -5 -6 0 3 11 9 11 10 16 3
11 -12 -6 -18 5 -14 27 0 4 -5 7 -13 7 -8 0 -12 9 -11 25 2 17 -6 34 -25 52
-16 15 -27 30 -24 34 2 4 -3 9 -10 12 -8 3 -20 16 -26 29 -11 22 -10 22 4 4 9
-11 16 -15 16 -9 0 5 -9 18 -20 28 -11 10 -17 22 -13 28 3 5 1 7 -5 3 -6 -3
-13 3 -17 14 -4 12 -11 17 -18 13 -7 -4 -6 1 2 10 11 14 11 17 0 17 -18 0 -44
40 -40 63 1 10 -4 17 -14 17 -9 0 -13 5 -10 10 3 6 1 10 -6 10 -8 0 -7 5 2 17
11 13 11 15 1 9 -9 -5 -12 -3 -11 5 4 20 -22 69 -33 63 -4 -3 -11 2 -14 10 -3
9 -12 16 -20 16 -8 0 -14 8 -14 19 0 10 -6 24 -14 31 -8 6 -12 19 -9 27 5 12
3 14 -8 8 -8 -4 -11 -4 -6 0 4 5 0 20 -9 34 l-15 26 20 -24 c12 -13 21 -20 21
-16 0 4 -14 23 -31 42 -19 22 -29 43 -26 54 3 11 1 16 -4 13 -5 -3 -12 2 -16
11 -3 10 0 20 6 25 9 5 6 9 -9 13 -19 5 -20 8 -10 27 7 13 8 20 3 17 -4 -3
-14 1 -21 9 -10 11 -10 14 0 14 7 0 3 7 -9 15 -12 8 -20 23 -19 32 2 10 -4 24
-13 31 -14 12 -14 13 3 8 15 -5 17 -4 8 7 -7 8 -8 18 -4 22 4 5 2 5 -4 2 -7
-4 -14 2 -17 14 -4 16 -2 19 11 14 13 -5 12 -2 -3 13 -11 11 -23 18 -27 15 -4
-2 -5 6 -3 17 3 14 -1 20 -16 20 -10 0 -18 3 -18 8 4 25 -2 34 -15 23 -11 -9
-15 -8 -20 4 -3 9 -10 13 -16 10 -5 -3 -10 0 -10 7 0 9 -3 9 -10 -2 -5 -8 -10
-10 -10 -4 0 7 -7 14 -14 17 -11 4 -13 1 -9 -11 6 -14 4 -15 -9 -4 -11 9 -18
10 -23 2 -3 -5 -12 -10 -18 -10 -7 0 -6 4 3 11 17 12 10 10 -42 -14 -34 -15
-43 -26 -39 -49 0 -4 -6 -5 -15 -1 -9 3 -14 0 -12 -8 2 -9 -6 -14 -25 -13 -23
1 -25 -1 -15 -14 10 -13 10 -14 1 -8 -7 4 -13 3 -13 -3 0 -6 -7 -8 -15 -5 -8
4 -15 1 -15 -6 0 -7 -7 -10 -15 -7 -8 4 -17 1 -21 -5 -5 -7 -2 -8 6 -3 9 5 11
4 6 -4 -6 -9 -11 -9 -22 0 -11 9 -15 8 -20 -5 -3 -9 -10 -13 -15 -10 -5 3 -9
0 -9 -6 0 -6 -5 -8 -10 -5 -6 4 -10 3 -9 -2 4 -21 -2 -33 -16 -33 -8 0 -15 -4
-15 -9 0 -5 -17 -15 -37 -22 -21 -6 -42 -18 -46 -25 -4 -8 -15 -14 -22 -14 -8
0 -15 -5 -15 -11 0 -5 -4 -7 -10 -4 -5 3 -10 2 -10 -4 0 -6 -7 -7 -17 -4 -12
5 -14 3 -8 -7 6 -10 2 -12 -18 -8 -15 3 -24 1 -21 -3 2 -4 -5 -13 -16 -19 -17
-9 -25 -6 -46 15 -14 14 -22 30 -19 35 6 9 -8 14 -27 11 -5 0 -8 6 -8 15 0 8
-4 13 -9 9 -6 -3 -8 3 -6 14 3 15 0 18 -12 14 -12 -5 -15 -2 -10 10 4 11 1 17
-8 17 -8 0 -15 6 -15 13 0 7 -9 23 -20 35 -12 12 -16 22 -10 22 6 0 8 6 4 13
-4 6 2 4 13 -6 19 -16 22 -16 36 -2 10 10 18 12 22 4 5 -6 12 -4 21 8 9 12 13
13 14 5 0 -7 5 -10 10 -7 6 4 7 11 4 17 -4 6 2 6 15 -1 16 -9 21 -9 21 0 0 7
3 9 7 6 3 -4 12 1 20 11 8 9 12 11 8 5 -3 -7 -1 -13 4 -13 6 0 11 4 11 10 0 5
10 14 21 21 15 7 19 8 15 0 -5 -7 -1 -9 8 -5 9 3 13 10 10 15 -3 5 0 9 7 9 6
0 18 8 25 18 13 16 14 16 9 -3 -5 -16 -3 -16 6 2 7 13 18 23 24 23 7 0 20 10
29 23 9 12 14 16 10 8 -5 -9 -3 -12 4 -7 7 4 12 11 12 16 0 5 16 24 35 43 19
19 32 37 28 40 -10 10 18 38 31 30 6 -4 4 2 -4 12 -14 17 -13 18 4 12 16 -6
17 -5 6 8 -10 12 -9 16 4 21 9 3 14 10 11 14 -3 5 2 16 11 24 8 9 12 16 9 16
-4 0 0 12 10 26 9 15 12 23 5 19 -8 -5 -11 -3 -8 6 3 8 11 13 17 11 7 -1 9 2
5 9 -8 14 -12 78 -4 77 19 -1 23 4 10 12 -13 9 -13 10 0 10 13 0 13 1 0 10
-13 9 -13 11 0 20 10 6 11 10 3 10 -7 0 -13 5 -13 11 0 5 6 7 13 3 8 -5 8 -2
-2 9 -11 14 -11 17 0 17 10 0 11 2 2 8 -7 4 -13 24 -15 45 -1 20 -6 37 -11 37
-5 0 -3 8 4 17 8 9 9 14 3 10 -7 -4 -14 1 -17 13 -6 24 2 33 20 18 11 -9 12
-7 6 7 -5 14 -3 17 10 12 9 -3 17 -2 17 3 0 6 6 9 13 8 6 -2 11 3 9 10 -2 10
2 10 18 2 16 -9 20 -8 20 5 0 9 5 13 10 10 6 -3 10 -1 10 5 0 6 4 8 10 5 5 -3
19 1 31 9 12 8 28 12 37 9 11 -5 13 -3 7 7 -6 9 -4 11 4 6 7 -5 19 0 27 10 15
18 15 18 9 -1 -6 -18 -5 -18 15 3 23 24 35 29 24 10 -4 -7 2 -5 13 5 16 14 22
15 26 5 4 -8 6 -7 6 5 1 11 7 17 19 15 10 -2 16 2 14 10 -1 8 2 11 8 7 6 -3 8
-10 5 -15 -3 -5 -1 -12 5 -15 6 -4 10 -3 9 2 -3 17 1 33 9 32 21 -4 32 2 26
14 -5 7 0 6 11 -3 10 -8 16 -10 12 -4 -4 7 0 15 9 18 10 4 13 2 8 -6 -5 -7 -3
-8 7 -2 16 10 20 11 50 13 11 0 17 6 14 11 -3 6 -1 10 4 10 6 0 11 -6 11 -12
0 -9 3 -10 8 -2 4 6 19 14 35 18 15 3 27 11 27 16 0 6 9 6 26 0 15 -6 23 -6
19 -1 -3 5 -1 12 4 15 5 4 12 2 16 -3 3 -6 12 -8 20 -5 8 4 13 10 10 14 -3 4
2 11 11 14 24 9 31 7 14 -4 -8 -5 -10 -10 -4 -10 6 0 17 7 24 14 9 11 18 13
37 5 22 -8 24 -7 14 4 -9 12 -5 14 24 11 19 -1 35 2 35 8 0 6 7 4 17 -3 14
-12 16 -12 8 0 -6 11 -4 13 8 8 10 -4 17 0 20 11 4 16 5 15 6 0 1 -21 21 -25
21 -4 0 9 8 12 25 8 16 -3 25 0 25 9 0 8 6 5 15 -7 8 -10 15 -14 14 -9 -3 23
2 27 18 14 11 -10 14 -10 9 -1 -9 15 6 16 21 1 8 -8 13 -7 18 2 6 8 4 10 -5 4
-9 -5 -11 -4 -6 3 5 9 13 9 28 1 12 -6 18 -7 14 -1 -3 5 1 13 10 16 12 5 15 2
10 -11 -6 -15 -4 -14 14 2 18 16 23 17 30 5 8 -13 10 -13 10 0 0 13 2 13 10 0
7 -12 12 -12 28 4 15 13 22 14 28 5 4 -8 3 -10 -4 -5 -7 4 -12 2 -12 -3 0 -14
17 -14 25 -1 3 5 13 6 22 3 11 -4 14 -3 9 5 -5 8 -2 10 8 6 9 -3 14 -9 11 -13
-2 -4 2 -8 10 -8 8 0 12 4 10 7 -3 4 6 8 20 8 16 0 22 -5 18 -12 -5 -8 -3 -8
8 0 24 18 49 24 43 11 -5 -14 34 -16 56 -2 9 5 15 4 18 -3 2 -7 8 -12 13 -12
6 0 7 5 3 11 -4 7 1 7 16 -1 15 -8 20 -8 16 -1 -4 6 -2 11 3 11 6 0 11 -4 11
-10 0 -5 5 -10 11 -10 5 0 7 6 3 13 -6 9 -3 8 8 -1 9 -8 25 -12 36 -10 10 2
27 -4 38 -12 18 -14 18 -14 4 4 -14 18 -14 19 8 7 12 -6 22 -9 22 -5 0 3 8 0
17 -7 15 -12 16 -12 10 5 -6 15 -5 17 6 8 8 -7 17 -9 20 -5 4 3 7 0 7 -8 0
-11 2 -11 10 1 7 10 10 11 10 2 0 -8 9 -11 25 -8 14 3 25 0 25 -5 0 -5 5 -9
11 -9 5 0 7 6 3 13 -4 6 3 3 16 -8 13 -11 20 -14 16 -7 -4 6 -2 12 3 12 6 0
11 -4 11 -10 0 -5 3 -9 8 -9 4 1 20 1 35 0 20 -1 26 -5 21 -13 -6 -9 -3 -9 9
0 14 12 19 11 38 -7 17 -16 26 -18 36 -10 10 9 13 8 13 -1 0 -7 6 -10 14 -7 8
3 26 -5 40 -18 15 -14 29 -25 31 -25 3 0 10 0 16 0 5 0 7 -4 4 -10 -3 -6 4
-10 17 -10 18 0 20 -2 8 -10 -13 -8 -12 -10 3 -10 9 0 17 -5 17 -12 0 -6 6 -3
14 7 8 11 13 29 11 42 -1 13 3 23 9 23 7 0 11 29 12 80 1 47 -3 80 -9 80 -5 0
-4 7 3 15 10 12 10 15 -3 15 -9 0 -26 13 -38 30 -12 16 -26 27 -30 24 -5 -3
-6 2 -2 12 5 14 3 15 -17 4 -16 -9 -20 -9 -15 0 4 7 -1 13 -14 17 -12 3 -21
10 -21 17 0 7 -4 6 -9 -2 -6 -11 -10 -10 -15 3 -5 14 -9 15 -20 6 -11 -9 -16
-9 -22 0 -5 8 -3 9 6 4 8 -5 11 -4 7 2 -9 14 -58 14 -51 -1 3 -6 -4 0 -15 13
-13 14 -21 18 -21 10 0 -11 -2 -11 -10 1 -9 13 -10 13 -10 0 0 -13 -2 -13 -9
-1 -5 8 -16 11 -25 8 -8 -3 -22 0 -30 9 -10 9 -17 11 -21 4 -5 -8 -11 -7 -21
1 -8 6 -14 8 -14 4 0 -5 -10 0 -22 11 -19 16 -20 16 -9 1 12 -16 12 -17 -5
-10 -10 3 -22 11 -26 17 -5 7 -8 7 -8 -1 0 -7 -5 -13 -11 -13 -5 0 -7 5 -4 10
9 14 -8 12 -24 -2 -9 -8 -11 -8 -8 -2 4 7 0 15 -9 18 -10 4 -13 2 -8 -7 6 -9
4 -9 -7 -1 -8 6 -31 10 -51 9 -22 -1 -38 2 -38 8 0 8 -3 8 -11 0 -8 -8 -20 -8
-43 2 -17 7 -41 11 -54 9 -16 -3 -21 0 -16 8 6 10 4 11 -7 1 -15 -15 -33 -17
-25 -4 7 11 -13 9 -31 -2 -8 -5 -13 -3 -13 5 0 9 -3 9 -10 -2 -8 -12 -10 -12
-10 -1 0 11 -3 11 -17 0 -11 -10 -14 -10 -9 -1 4 6 2 12 -3 12 -6 0 -11 -6
-11 -12 0 -10 -3 -9 -9 1 -6 10 -10 10 -16 1 -6 -9 -10 -9 -16 1 -7 11 -9 11
-9 -1 0 -13 -1 -13 -10 0 -9 13 -10 13 -10 0 0 -13 -1 -13 -10 0 -7 11 -10 11
-10 2 0 -7 -5 -10 -10 -7 -6 4 -17 2 -25 -5 -10 -8 -15 -8 -21 1 -5 8 -3 9 6
4 9 -6 11 -4 5 4 -5 9 -14 6 -34 -11 -14 -12 -20 -16 -13 -8 16 18 15 27 -3
27 -8 0 -11 -5 -8 -10 4 -6 -5 -8 -21 -5 -14 3 -29 1 -32 -3 -8 -14 -26 -10
-19 4 4 6 1 5 -7 -3 -17 -20 -53 -27 -42 -8 6 10 5 11 -8 1 -8 -7 -18 -10 -21
-6 -4 3 -7 1 -7 -6 0 -9 -5 -9 -20 -1 -18 10 -23 7 -22 -10 0 -3 -8 -6 -18 -6
-11 0 -16 6 -13 16 3 10 1 10 -7 -2 -6 -10 -22 -18 -35 -18 -13 0 -27 -4 -30
-10 -3 -5 -11 -10 -16 -10 -6 0 -7 5 -4 10 4 6 -12 1 -34 -11 -35 -18 -44 -19
-59 -8 -9 7 -14 9 -10 5 5 -5 -2 -16 -14 -24 -16 -12 -23 -12 -26 -4 -2 7 -8
12 -13 12 -6 0 -7 -4 -4 -10 5 -9 -15 -15 -37 -11 -5 0 -8 -4 -8 -10 0 -6 -7
-9 -15 -5 -8 3 -15 1 -15 -5 0 -6 -5 -7 -10 -4 -6 4 -18 1 -26 -6 -8 -6 -17
-9 -20 -6 -4 3 -13 -1 -22 -9 -12 -13 -16 -13 -23 -2 -7 10 -9 8 -9 -6 0 -12
-5 -16 -15 -12 -8 3 -15 0 -15 -7 0 -8 -4 -6 -10 3 -7 12 -10 12 -10 1 0 -7
-6 -11 -14 -8 -10 4 -13 1 -10 -7 4 -10 -2 -12 -22 -8 -17 3 -25 1 -21 -6 10
-15 -18 -22 -33 -9 -9 9 -11 9 -7 1 8 -13 -20 -27 -34 -18 -5 3 -9 1 -9 -5 0
-5 -12 -11 -27 -13 -16 -2 -27 -8 -26 -15 2 -7 -3 -10 -11 -7 -8 3 -17 1 -21
-5 -3 -6 -11 -11 -16 -11 -6 0 -7 5 -3 12 5 7 3 8 -5 4 -7 -5 -10 -15 -6 -23
4 -13 3 -14 -9 -4 -11 9 -16 9 -21 1 -4 -7 -15 -10 -25 -7 -12 3 -17 0 -14 -8
6 -15 -60 -40 -77 -29 -8 4 -9 3 -5 -4 4 -7 2 -12 -4 -12 -6 0 -8 -4 -5 -10 3
-6 -1 -7 -9 -4 -9 3 -16 1 -16 -5 0 -8 -5 -9 -19 -1 -14 7 -22 7 -27 -2 -4 -7
-3 -8 4 -4 7 4 12 3 12 -2 0 -12 -24 -22 -51 -22 -10 0 -19 -5 -19 -11 0 -5
-4 -7 -10 -4 -5 3 -10 1 -10 -5 0 -7 -5 -6 -14 2 -8 7 -12 16 -9 20 2 4 -4 5
-13 1 -14 -5 -16 -3 -11 11 5 12 2 16 -10 14 -10 -2 -18 2 -18 9 0 6 -4 15 -9
20 -5 5 -6 3 -2 -4 11 -19 -2 -16 -27 7 -12 11 -27 18 -34 16 -7 -3 -13 2 -13
10 0 8 -4 12 -10 9 -5 -3 -10 -2 -10 4 0 6 -7 8 -15 5 -8 -4 -15 -1 -15 6 0 6
-4 9 -9 5 -5 -3 -17 2 -25 11 -11 11 -16 12 -16 3 0 -7 -7 -5 -16 7 -8 10 -13
12 -9 4 4 -8 -2 -4 -13 9 -19 23 -20 23 -30 5 -11 -18 -11 -18 -12 -1 0 10 -4
15 -10 12 -5 -3 -10 0 -10 7 0 8 -3 9 -8 3 -4 -5 -13 -11 -21 -13 -12 -3 -12
0 -1 13 11 13 10 15 -4 9 -9 -3 -16 -11 -16 -18 0 -7 -3 -6 -9 2 -7 12 -24 18
-53 21 -5 1 -8 10 -8 20 0 11 -4 23 -10 26 -5 3 -10 16 -10 29 0 12 -6 28 -12
35 -10 11 -10 12 -1 7 9 -5 11 -2 7 8 -3 9 -10 14 -14 11 -5 -3 -6 4 -3 15 3
13 0 20 -8 20 -11 0 -11 2 1 10 10 6 11 10 3 10 -7 0 -13 12 -13 26 0 14 -4
23 -10 19 -14 -9 -12 8 3 24 9 11 9 13 0 7 -9 -5 -13 1 -13 18 0 14 -5 26 -11
26 -5 0 -7 -5 -3 -12 4 -7 3 -8 -5 -4 -9 6 -9 11 0 22 9 11 9 14 0 14 -7 0
-10 4 -7 9 6 9 -15 61 -26 61 -3 0 -5 11 -3 25 1 14 -2 28 -7 31 -4 3 -5 10
-2 16 4 6 2 8 -3 5 -16 -10 -24 18 -10 32 9 9 8 11 -5 6 -14 -6 -18 -2 -19 16
-1 13 -1 27 0 32 0 4 -3 7 -8 7 -5 0 -12 7 -15 16 -3 8 -2 12 4 9 6 -3 7 1 4
9 -3 9 -11 13 -18 9 -6 -4 -4 2 4 12 9 11 10 16 3 11 -8 -4 -13 -2 -13 4 0 6
-5 8 -11 4 -8 -5 -8 -1 0 13 8 16 6 25 -9 41 -10 11 -21 32 -22 46 -2 14 -8
29 -13 33 -4 4 -5 2 -1 -4 4 -7 5 -13 2 -13 -3 0 -10 10 -17 21 -9 17 -8 20 3
14 7 -5 2 4 -12 20 -14 16 -20 26 -15 22 6 -3 11 3 11 14 0 12 -7 19 -19 19
-14 0 -18 5 -14 20 3 11 0 20 -6 20 -7 0 -17 11 -24 25 -8 19 -8 24 0 19 7 -3
1 4 -13 16 -14 12 -19 18 -11 14 9 -4 12 -2 9 7 -3 8 -10 14 -16 14 -5 0 -14
4 -19 9 -5 5 -2 6 6 1 9 -5 12 -3 9 6 -3 8 -12 13 -19 11 -8 -2 -11 0 -6 4 4
4 0 18 -8 31 -9 13 -13 28 -10 33 3 6 -4 10 -17 11 -13 0 -18 3 -11 6 10 3 10
7 0 18 -7 7 -15 11 -19 9 -4 -3 -5 4 -3 16 2 11 -1 23 -7 26 -7 5 -8 2 -3 -6
5 -9 4 -11 -3 -6 -7 4 -12 12 -12 18 0 5 -13 22 -29 38 -24 21 -27 30 -18 40
7 8 8 10 1 7 -6 -4 -18 1 -27 11 -9 9 -27 30 -41 45 -28 30 -34 43 -14 31 7
-4 8 -3 4 4 -4 6 -13 9 -21 5 -9 -3 -15 1 -15 11 0 15 -12 21 -33 17 -5 -1 -6
3 -2 9 3 6 11 7 17 4 7 -4 8 -2 4 4 -4 7 -16 12 -27 12 -11 0 -17 5 -14 10 3
6 -1 13 -9 16 -9 3 -13 10 -10 15 3 5 -3 6 -12 2 -12 -4 -15 -3 -10 5 4 7 1
12 -8 12 -9 0 -16 8 -16 17 0 9 -3 13 -6 10 -4 -4 -14 2 -23 12 -9 10 -25 20
-36 23 -12 2 -19 10 -17 20 1 9 -3 20 -9 24 -8 5 -9 3 -4 -7 5 -8 0 -7 -12 4
-11 9 -23 14 -27 10 -4 -4 -4 0 0 10 4 13 1 17 -14 17 -12 0 -23 9 -27 20 -4
11 -11 18 -16 15 -5 -4 -9 -1 -9 5 0 7 -7 9 -16 6 -8 -3 -12 -2 -9 4 3 6 1 10
-4 10 -6 0 -11 7 -11 15 0 8 -5 15 -11 15 -5 0 -7 -6 -4 -12 4 -7 -2 -3 -13 9
-11 12 -22 19 -26 16 -3 -4 -6 2 -6 12 0 10 -3 16 -6 12 -7 -6 -64 19 -64 29
0 3 6 2 13 -1 6 -4 3 0 -7 9 -10 8 -23 13 -27 10 -5 -3 -9 2 -9 11 0 9 -4 13
-10 10 -5 -3 -10 -1 -10 5 0 6 -4 8 -10 5 -5 -3 -10 -1 -10 5 0 6 -4 9 -9 5
-5 -3 -17 5 -27 17 -14 20 -16 21 -10 3 6 -19 6 -19 -8 -1 -9 11 -22 16 -31
12 -9 -3 -13 -2 -10 4 3 6 3 10 -2 11 -77 7 -123 6 -123 -3 0 -6 -7 -5 -17 3
-12 10 -15 10 -9 1z m2006 -2886 c0 -2 -8 -10 -17 -17 -16 -13 -17 -12 -4 4
13 16 21 21 21 13z m-2660 -666 c0 -5 -2 -10 -4 -10 -3 0 -8 5 -11 10 -3 6 -1
10 4 10 6 0 11 -4 11 -10z m-910 -234 c0 -2 -8 -10 -17 -17 -16 -13 -17 -12
-4 4 13 16 21 21 21 13z m1450 -41 c11 -13 10 -14 -4 -9 -9 3 -16 10 -16 15 0
13 6 11 20 -6z m3105 -185 c3 -6 -1 -7 -9 -4 -18 7 -21 14 -7 14 6 0 13 -4 16
-10z m-4255 -634 c0 -3 -4 -8 -10 -11 -5 -3 -10 -1 -10 4 0 6 5 11 10 11 6 0
10 -2 10 -4z"/>
<path d="M7180 5776 c0 -2 8 -10 18 -17 15 -13 16 -12 3 4 -13 16 -21 21 -21
13z"/>
<path d="M1850 5646 c0 -2 7 -7 16 -10 8 -3 12 -2 9 4 -6 10 -25 14 -25 6z"/>
<path d="M3783 5385 c0 -8 4 -12 9 -9 5 3 6 10 3 15 -9 13 -12 11 -12 -6z"/>
<path d="M5555 4121 c-3 -5 -2 -12 3 -15 5 -3 9 1 9 9 0 17 -3 19 -12 6z"/>
<path d="M4915 2890 c3 -5 8 -10 11 -10 2 0 4 5 4 10 0 6 -5 10 -11 10 -5 0
-7 -4 -4 -10z"/>
<path d="M4393 2525 c0 -8 4 -12 9 -9 5 3 6 10 3 15 -9 13 -12 11 -12 -6z"/>
<path d="M5125 2269 c-4 -6 -5 -12 -2 -15 2 -3 7 2 10 11 7 17 1 20 -8 4z"/>
<path d="M4295 2080 c-3 -5 -1 -10 4 -10 6 0 11 5 11 10 0 6 -2 10 -4 10 -3 0
-8 -4 -11 -10z"/>
<path d="M715 2030 c3 -5 8 -10 11 -10 2 0 4 5 4 10 0 6 -5 10 -11 10 -5 0 -7
-4 -4 -10z"/>
<path d="M4925 1130 c-3 -6 1 -7 9 -4 18 7 21 14 7 14 -6 0 -13 -4 -16 -10z"/>
<path d="M4078 733 c7 -3 16 -2 19 1 4 3 -2 6 -13 5 -11 0 -14 -3 -6 -6z"/>
</g>
</svg>
